<?xml version="1.0" encoding="utf-8"?>
<!-- Generator: Adobe Illustrator 18.1.1, SVG Export Plug-In . SVG Version: 6.00 Build 0)  -->
<svg version="1.1" id="Layer_1" xmlns="http://www.w3.org/2000/svg" xmlns:xlink="http://www.w3.org/1999/xlink" x="0px" y="0px"
	 viewBox="0 0 85.4 38.4" enable-background="new 0 0 85.4 38.4" xml:space="preserve">
<rect x="0" y="0" fill="#FFFB00" width="85.4" height="38.4"/>
<g>
	<g>
		<path fill-rule="evenodd" clip-rule="evenodd" d="M77.9,26.2c-0.2,0.1-0.4,0.3-0.7,0.4c0,0.2,0,0.3,0.1,0.5c-0.1,0-0.2,0-0.2,0
			c-0.2,0-0.3-0.1-0.5-0.2c-0.1,0.1-0.1,0.2-0.2,0.3c0,0.1-0.1,0.1-0.1,0.3c-0.1-0.1-0.1-0.2-0.2-0.2c-0.1-0.1-0.1-0.1-0.2-0.2
			c-0.3,0.1-0.5,0.2-0.8,0.3c-0.4,0.1-0.8,0.3-1.2,0.4c-0.2,0.1-0.3,0.1-0.5,0.2c0,0.2,0.1,0.4,0.1,0.6c-0.3,0-0.5-0.3-0.7-0.1
			c-0.1,0.2-0.2,0.4-0.3,0.6c-0.1-0.3-0.1-0.5-0.2-0.7c0-0.2-0.1-0.3-0.4-0.3c0,0.1,0,0.2,0,0.4c0,1.1,0,2.2,0,3.3
			c0,0.2,0,0.4,0,0.5c-0.2,0.2-0.3,0.2-0.5,0.2c-0.5-0.1-1-0.2-1.5-0.3c-1-0.2-2-0.4-3-0.6c-0.7-0.1-1.4-0.3-2.2-0.4
			c-0.3-0.1-0.4-0.2-0.4-0.6c0-0.6,0-1.1,0-1.6c-0.3-0.4-0.5-0.4-0.9-0.3c-0.1,0-0.2,0.1-0.3,0.2c0-0.2-0.1-0.3-0.1-0.5
			c-0.1,0-0.2-0.1-0.2-0.2c-0.8-0.4-1.6-0.7-2.4-1.1c-0.1-0.1-0.2-0.1-0.4,0c-0.1,0.1-0.2,0.1-0.3,0.1c-0.2-0.1-0.2-0.3-0.3-0.5
			c-0.2-0.1-0.5-0.1-0.7-0.2c0-0.2,0-0.2,0.3-0.6c0-0.1,0-0.2-0.1-0.3c-0.1-0.7,0-1.3,0.5-1.7c0.4-0.4,1-0.6,1.5-0.9
			c0.2-0.1,0.3-0.1,0.5-0.2c0-0.2-0.1-0.5-0.1-0.7c0.3,0.1,0.5,0.5,0.9,0.5c0.1-0.1,0.3-0.3,0.5-0.5c0,0.2,0.1,0.4,0.1,0.5
			c0.5,0,0.9-0.1,1.3-0.3c0-1.7,0-3.3,0-5.1c-0.2,0.1-0.3,0.2-0.4,0.3c-0.1-0.1-0.2-0.3-0.3-0.4c-0.5,0.1-1.9,0.6-2.8,1
			c0,0.2,0.1,0.3,0.1,0.5c-0.2-0.1-0.4-0.1-0.5-0.2c-0.4,0-0.3,0.5-0.6,0.6c-0.1-0.2-0.3-0.3-0.4-0.4c-0.3,0.1-0.6,0.1-0.9,0.1
			c0-0.3,0.2-0.3,0.3-0.4c0.1-0.1,0.3-0.2,0.4-0.4c-0.1-0.2-0.2-0.4-0.3-0.6c0.3,0,0.6,0.3,0.9,0.1c0.1-0.1,0.2-0.3,0.3-0.4
			c0.2,0.1,0.1,0.5,0.5,0.5c0.9-0.2,1.8-0.6,2.8-0.9c0.1-0.2,0.1-0.5,0.2-0.7c0.3,0.1,0.4,0.3,0.7,0.2c0-0.1,0-0.2,0-0.3
			c0-0.5,0-1.1,0-1.6c0-0.3,0.1-0.5,0.4-0.6c0.2,0,0.4,0,0.6,0c0.6,0,1.3,0,1.9,0c0.2,0,0.3,0,0.5-0.2c0-0.2-0.2-0.2-0.3-0.3
			c-0.2-0.1-0.5-0.2-0.7-0.3c-0.6-0.2-1.1-0.6-1.6-1.1c-0.4-0.5-0.6-1-0.7-1.6c-0.1-0.5,0-1,0.1-1.4c0.1-0.6,0.5-1.1,0.9-1.6
			c0.6-0.6,1.2-1,1.9-1.4C67.7,5.3,68.3,5,69,4.6c0.3-0.2,0.6-0.4,0.9-0.6c0.4-0.3,0.6-0.6,0.5-1.1c0,0,0.1,0,0.1,0
			c0,0.1,0.1,0.1,0.1,0.2c0.4,0.3,0.7,0.6,1.1,1c1,1.1,1.2,2.4,0.7,3.7c-0.3,0.7-0.7,1.2-1.3,1.7c-0.6,0.5-1.2,1.1-1.7,1.6
			c-0.3,0.3-0.6,0.8-0.7,1.2c0,0.2-0.1,0.4-0.1,0.6c0,0.3,0.2,0.6,0.7,0.6c0.7,0,1.3,0,2,0c0.2,0,0.3,0,0.4,0
			c0.3,0.2,0.4,0.4,0.4,0.7c0,0.5,0,1.1,0,1.6c0,0.1,0,0.2,0,0.3c0.2,0,0.5,0.1,0.7,0.1c0.2-0.2,0.4-0.5,0.6-0.7
			c0,0.1,0,0.2,0.1,0.2c0.1,0.5,0.3,0.5,0.7,0.3c0.1-0.1,0.2-0.1,0.4-0.3c-0.1,0.3-0.1,0.5-0.2,0.8c0.3,0.1,0.6,0.3,0.9,0.4
			c0.3,0.2,0.6,0.3,0.9,0.5c0.3,0.2,0.5,0.4,0.8,0.6c0.2,0,0.3-0.3,0.5-0.2c0.1,0.2,0.1,0.5,0.2,0.7c0.2,0.1,0.4,0.2,0.6,0.3
			c0,0,0,0.1,0,0.1c-0.2,0.1-0.4,0.1-0.6,0.2c0,0.2-0.1,0.3-0.1,0.5c-0.1,0.5-0.4,1-0.9,1.3c-0.3,0.2-0.6,0.3-0.9,0.4
			c-0.3,0.1-0.7,0.2-1.1,0.3c-0.1,0-0.2,0.1-0.2,0.1c0.1,0.2,0.2,0.4,0.3,0.6c-0.2-0.1-0.4-0.2-0.5-0.3c-0.4-0.2-0.5-0.2-0.8,0.1
			c-0.1,0.1-0.1,0.2-0.2,0.3c0,0.1-0.1,0.1-0.2,0.2c-0.2-0.3-0.2-0.6-0.5-0.8c-0.4,0.1-0.4,0.1-0.4,0.5c0,1.6,0,3.1,0,4.7
			c0,0.1,0,0.1,0,0.2c0.4,0.3,0.6,0.2,0.9-0.4c0.2,0.3,0.2,0.3,0.6,0.5c0.8-0.2,1.6-0.4,2.3-0.9c0-0.3-0.1-0.5-0.1-0.8
			c0.3,0.1,0.4,0.5,0.8,0.4c0.2-0.1,0.1-0.4,0.3-0.5c0.1,0.2,0.2,0.3,0.3,0.4C77.4,26,77.6,26,77.9,26.2
			C77.9,26.1,77.9,26.1,77.9,26.2z M65.6,22.7c0,2.4,0,4.8,0,7.2c0.1,0.2,0.2,0.2,0.4,0.3c0.6,0.1,1.2,0.2,1.8,0.3
			c0.7,0.1,1.3,0.2,2,0.4c0.2,0,0.4,0.1,0.6,0c0.1-0.2,0.2-0.5,0.2-0.7c0-2.4,0-4.9,0-7.3c0-0.2,0-0.4-0.1-0.6c-0.1,0-0.1-0.1-0.2,0
			c-0.6,0.1-1.3,0-1.9,0.2c-0.1,0.1-0.1,0.3-0.2,0.4c-0.3-0.1-0.6-0.2-0.9-0.1c-0.3,0.2-0.4,0.5-0.7,0.7c0-0.3,0-0.5-0.2-0.8
			C66.1,22.6,65.8,22.6,65.6,22.7z M70.4,21.7c0-0.1,0-0.2,0-0.3c0-1.9,0-3.8,0-5.7c0-0.1,0-0.2,0-0.3c0-0.3-0.2-0.4-0.5-0.5
			c-0.1,0-0.1,0-0.2,0c-1.2,0-2.4,0-3.6,0c-0.1,0-0.2,0-0.3,0c-0.2,0-0.3,0.1-0.3,0.3c0,0.1,0,0.2,0,0.3c0,2.1,0,4.3,0,6.4
			c0,0.1,0,0.2,0,0.3c0.3,0.1,0.8,0,1.2-0.2c0-0.2,0-0.4,0.1-0.6c0.1,0.1,0.2,0.2,0.4,0.2c0.2,0.1,0.3,0.1,0.5-0.1
			c0.1-0.1,0.2-0.2,0.3-0.3c0.1,0.2,0.1,0.4,0.2,0.5C68.7,22,70,21.9,70.4,21.7z M70.8,4.5c-0.2,0.3-0.3,0.5-0.5,0.7
			c-0.4,0.4-0.8,0.8-1.3,1.1c-0.6,0.5-1.3,1-1.8,1.6c-0.7,0.7-1.1,1.5-1,2.6c0.1,0.7,0.4,1.4,0.9,1.9c0.2,0.2,0.5,0.4,0.9,0.5
			c0.2-0.1,0.2-0.3,0.1-0.4c-0.1-0.6,0.1-1.2,0.4-1.7c0.2-0.5,0.5-1,0.8-1.4c0.4-0.7,0.9-1.4,1.3-2.1c0.2-0.3,0.3-0.7,0.5-1
			c0.2-0.4,0.1-0.8,0-1.2C71,4.8,70.9,4.7,70.8,4.5z M63.1,27c0.1,0.1,0.1,0.2,0.1,0.2c0.1,0.1,0.1,0.2,0.2,0.3
			c0.1,0.1,0.3,0.2,0.4,0.1c0.2-0.1,0.2-0.2,0.2-0.4c0-0.1,0-0.1,0-0.2c0-1.3,0-2.6,0-3.9c0-0.1,0-0.2,0-0.3c-0.4,0-0.8,0-1.1,0.2
			c0.1,0.2,0.1,0.3,0.2,0.5c-0.3-0.1-0.5-0.1-0.7-0.2c-0.1,0.1-0.2,0.1-0.3,0.2c-0.1-0.1-0.1-0.2-0.2-0.3c-0.1,0-0.1,0-0.1,0
			c-0.6,0.2-1.2,0.4-1.8,0.8c-0.3,0.3-0.5,0.6-0.6,1c0,0.2,0,0.4,0.1,0.7c0.1-0.1,0.3-0.1,0.4-0.2c0,0.2,0,0.3,0,0.5
			c0.2,0.1,0.3,0.1,0.5,0.2c0,0.1,0,0.3-0.1,0.4c0.5,0.4,2.1,1.1,2.6,1.1C63.1,27.4,63.1,27.2,63.1,27z M71.9,16.8
			c0,1.5,0,3.1,0,4.6c0.2,0.2,0.4,0.1,0.6,0c0-0.2,0-0.3,0.1-0.5c0.3,0.1,0.5,0.3,0.8,0.1c0.1-0.1,0.2-0.3,0.3-0.4
			c0.1,0.2,0.2,0.3,0.2,0.5c0.3,0.1,0.6,0,0.9,0c0.5-0.1,1-0.3,1.4-0.6c0.3-0.2,0.4-0.4,0.4-0.8c-0.3-0.2-0.5,0.1-0.7,0
			c0.1-0.2,0.2-0.3,0.3-0.5c-0.1-0.1-0.2-0.3-0.3-0.4c0.1-0.1,0.1-0.2,0.2-0.3c-0.2-0.4-0.5-0.6-1.1-0.9c-0.2-0.1-0.4-0.3-0.7-0.1
			c-0.1,0.2-0.1,0.4-0.2,0.6c-0.3-0.2-0.4-0.6-0.8-0.6c-0.1,0.1-0.3,0.1-0.5,0.2c-0.1-0.2-0.1-0.4-0.2-0.6
			C72.4,16.9,72.2,16.8,71.9,16.8z"/>
	</g>
</g>
<path d="M9,20.8H7.2l2-10.8h2.3l2,10.8h-1.8l-0.3-2.4h-2L9,20.8z M9.6,16.8h1.5l-0.7-4.6h0L9.6,16.8z"/>
<path d="M22,10v10.8h-1.6v-8.4h0l-1.7,8.4h-0.9l-1.7-8.4h0v8.4h-1.6V10h2.4l1.3,6.3h0l1.3-6.3H22z"/>
<path d="M23.7,20.8V10h1.7l2.3,6.2h0V10h1.7v10.8h-1.6L25.4,14h0v6.8H23.7z"/>
<path d="M31.2,20.8V10h5v1.6h-3.1v2.8h2.4V16h-2.4v3.2h3.3v1.6H31.2z"/>
<path d="M41.2,12.6c0-0.2-0.1-0.4-0.1-0.6c-0.1-0.2-0.1-0.3-0.2-0.4c-0.1-0.1-0.2-0.2-0.3-0.2c-0.1,0-0.2-0.1-0.3-0.1
	c-0.3,0-0.5,0.1-0.7,0.3c-0.2,0.2-0.2,0.4-0.2,0.8c0,0.3,0.1,0.6,0.3,0.9c0.2,0.3,0.4,0.5,0.7,0.8c0.3,0.3,0.6,0.5,0.9,0.8
	c0.3,0.3,0.6,0.6,0.9,0.9c0.3,0.3,0.5,0.7,0.7,1.1c0.2,0.4,0.3,0.8,0.3,1.3c0,0.4-0.1,0.8-0.2,1.2c-0.1,0.3-0.3,0.6-0.6,0.9
	c-0.3,0.2-0.6,0.4-0.9,0.5c-0.4,0.1-0.8,0.2-1.2,0.2c-0.4,0-0.8-0.1-1.2-0.2c-0.3-0.2-0.6-0.4-0.9-0.7c-0.2-0.3-0.4-0.6-0.5-1
	c-0.1-0.4-0.2-0.7-0.2-1.2l1.8-0.3c0,0.5,0.2,1,0.4,1.2c0.2,0.3,0.4,0.4,0.7,0.4c0.3,0,0.6-0.1,0.8-0.3c0.2-0.2,0.3-0.4,0.3-0.7
	c0-0.4-0.1-0.7-0.3-1c-0.2-0.3-0.4-0.5-0.7-0.8c-0.3-0.3-0.6-0.5-0.9-0.8c-0.3-0.3-0.6-0.5-0.9-0.9c-0.3-0.3-0.5-0.7-0.7-1
	c-0.2-0.4-0.3-0.8-0.3-1.4c0-0.9,0.2-1.5,0.7-2c0.5-0.5,1.2-0.7,2.1-0.7c0.4,0,0.7,0.1,1,0.2c0.3,0.1,0.6,0.3,0.8,0.5
	c0.2,0.2,0.4,0.5,0.5,0.8c0.1,0.3,0.2,0.7,0.3,1L41.2,12.6z"/>
<path d="M45.6,11.6h-1.8V10h5.4v1.6h-1.8v9.2h-1.9V11.6z"/>
<path d="M53.7,20.8h-1.9v-4.5L49.6,10h1.9l1.3,4.1h0L54,10h1.9l-2.2,6.3V20.8z"/>
<path d="M7.5,30.8v-6.4h1.1v6.4H7.5z"/>
<path d="M9.9,30.8v-6.4h1l1.3,3.7h0v-3.7h1v6.4h-1l-1.4-4h0v4H9.9z"/>
<path d="M14.9,25.4h-1.1v-1h3.2v1H16v5.4h-1.1V25.4z"/>
<path d="M17.7,30.8v-6.4h2.9v1h-1.8V27h1.4v1h-1.4v1.9h2v1H17.7z"/>
<path d="M22.8,30.8h-1.1v-6.4h1.5c0.6,0,1.1,0.1,1.4,0.4c0.3,0.3,0.5,0.8,0.5,1.5c0,0.3,0,0.5-0.1,0.7c0,0.2-0.1,0.3-0.2,0.5
	c-0.1,0.1-0.2,0.2-0.2,0.3c-0.1,0.1-0.2,0.1-0.3,0.2l0.9,2.9h-1.1l-0.8-2.7c-0.1,0-0.2,0-0.3,0c-0.1,0-0.2,0-0.3,0V30.8z M22.8,27.3
	h0.4c0.1,0,0.3,0,0.4,0c0.1,0,0.2-0.1,0.3-0.2c0.1-0.1,0.1-0.2,0.1-0.3c0-0.1,0-0.3,0-0.5c0-0.4-0.1-0.6-0.2-0.8
	c-0.1-0.1-0.3-0.2-0.6-0.2h-0.4V27.3z"/>
<path d="M26.1,30.8v-6.4h1l1.3,3.7h0v-3.7h1v6.4h-1l-1.4-4h0v4H26.1z"/>
<path d="M31.2,30.8h-1.1l1.2-6.4h1.4l1.2,6.4h-1.1l-0.2-1.4h-1.2L31.2,30.8z M31.5,28.5h0.9L32,25.7h0L31.5,28.5z"/>
<path d="M34.8,25.4h-1.1v-1H37v1h-1.1v5.4h-1.1V25.4z"/>
<path d="M37.8,30.8v-6.4h1.1v6.4H37.8z"/>
<path d="M40.1,26c0-0.2,0-0.4,0.1-0.6c0.1-0.2,0.2-0.4,0.3-0.5c0.1-0.1,0.3-0.3,0.5-0.4c0.2-0.1,0.5-0.1,0.7-0.1
	c0.3,0,0.5,0,0.7,0.1c0.2,0.1,0.4,0.2,0.5,0.4c0.1,0.1,0.2,0.3,0.3,0.5c0.1,0.2,0.1,0.4,0.1,0.6v3.3c0,0.2,0,0.4-0.1,0.6
	c-0.1,0.2-0.2,0.4-0.3,0.5c-0.1,0.1-0.3,0.3-0.5,0.4c-0.2,0.1-0.5,0.1-0.7,0.1c-0.3,0-0.5,0-0.7-0.1c-0.2-0.1-0.4-0.2-0.5-0.4
	c-0.1-0.1-0.2-0.3-0.3-0.5c-0.1-0.2-0.1-0.4-0.1-0.6V26z M41.2,29.3c0,0.2,0,0.4,0.1,0.5c0.1,0.1,0.2,0.2,0.5,0.2
	c0.2,0,0.4-0.1,0.5-0.2c0.1-0.1,0.1-0.3,0.1-0.5V26c0-0.2,0-0.4-0.1-0.5c-0.1-0.1-0.2-0.2-0.5-0.2c-0.2,0-0.4,0.1-0.5,0.2
	c-0.1,0.1-0.1,0.3-0.1,0.5V29.3z"/>
<path d="M44.5,30.8v-6.4h1l1.3,3.7h0v-3.7h1v6.4h-1l-1.4-4h0v4H44.5z"/>
<path d="M49.6,30.8h-1.1l1.2-6.4h1.4l1.2,6.4h-1.1L51,29.4h-1.2L49.6,30.8z M49.9,28.5h0.9l-0.4-2.8h0L49.9,28.5z"/>
<path d="M52.8,30.8v-6.4h1.1v5.4h1.7v1H52.8z"/>
</svg>
