<?xml version="1.0" encoding="utf-8"?>
<!-- Generator: Adobe Illustrator 18.1.1, SVG Export Plug-In . SVG Version: 6.00 Build 0)  -->
<svg version="1.1" id="Layer_1" xmlns="http://www.w3.org/2000/svg" xmlns:xlink="http://www.w3.org/1999/xlink" x="0px" y="0px"
	 viewBox="0 0 187.3 281.8" enable-background="new 0 0 187.3 281.8" xml:space="preserve">
<g>
	<g>
		<path fill="none" d="M187.3,221.5c0,20.1,0,40.2,0,60.3c-62.4,0-124.9,0-187.3,0C0,187.8,0,93.9,0,0c38.5,0,77.1,0,115.6,0
			c1,4.5-0.7,8-4.3,10.6c-2.9,2-5.8,4.1-8.8,5.8C96.4,19.8,90.1,23,84,26.5c-6.6,3.7-13,7.9-18.3,13.4c-4.2,4.4-7.6,9.2-9,15.2
			c-1,4.5-1.4,9-0.6,13.6c1,5.9,3,11.3,7.1,15.6c4.2,4.5,9.1,8,14.9,10.3c2.3,0.9,4.5,1.9,6.7,2.9c1.3,0.6,2.7,1.2,3.1,2.8
			c-1.3,1.6-2.9,1.5-4.5,1.5c-6,0-11.9,0-17.9,0c-2.2,0-4.3,0-5.9,0c-2.8,1.7-3.5,3.6-3.4,6.2c0.1,5.2,0.1,10.3,0,15.5
			c0,0.9-0.2,1.8-0.3,2.6c-2.9,1-4.4-1.4-6.8-2.2c-0.5,2.1-1,4.2-1.5,6.5c-8.8,3.3-17.7,6.3-26.2,8.7c-3.4-0.2-2.3-3.8-4.6-4.5
			c-1.1,1.6-2.2,3.2-2.9,4.2c-3.5,2-5.8-1-8.9-0.9c1.2,2.1,2.2,3.9,3.3,6c-1.6,1.3-2.9,2.5-4.2,3.6c-1.2,1-3.4,1.2-3.2,3.9
			c2.8-0.5,5.4-0.9,8.4-1.4c1.1,1.2,2.4,2.5,3.8,4c2.4-1.3,1.9-5.3,5.3-5.7c1.6,0.5,3.2,1,5.1,1.6c-0.3-2-0.6-3.5-0.8-5
			c8.9-4.2,21.5-8.8,26.6-9.6c1,1.3,2,2.6,3.1,3.9c1.3-0.9,2.3-1.7,3.7-2.7c0,16.5,0,32.3,0,48.3c-3.9,1.8-7.9,2.7-12.4,2.7
			c-0.4-1.7-0.8-3.2-1.2-5.1c-2,1.7-3.7,3.2-5,4.4c-3.7-0.4-4.8-4-8.1-4.9c0.3,2.5,0.6,4.7,0.8,7c-1.8,0.8-3.3,1.4-4.8,2.1
			c-5,2.3-10,4.6-14.3,8.4c-5.1,4.6-6.2,10.2-5,16.6c0.2,1.2,0.4,2.3,0.5,3.2c-2.8,3.6-2.8,3.6-3.1,5.4c2.3,0.7,4.5,1.3,6.6,1.9
			c0.8,2,0.5,4,2.5,5.2c0.8-0.4,1.8-0.9,2.7-1.4c1.2-0.6,2.3-0.6,3.5,0c7.5,3.4,15,6.7,22.5,10.2c0.9,0.4,1.7,1.2,2.4,1.7
			c0.3,1.8,0.6,3.1,0.9,4.8c1.4-0.7,2.3-1.1,3.3-1.6c3.9-1.7,5.6-1.2,8.4,2.5c0,5.1,0,10.4,0,15.7c0,3.5,1,4.7,4.2,5.3
			c6.9,1.4,13.7,2.7,20.6,4.1c9.5,1.9,19,3.7,28.5,5.5c4.8,0.9,9.5,1.7,14.3,2.6c1.7,0.3,3.2,0,5-1.6c0.1-1.3,0.4-3,0.4-4.7
			c0.1-10.5,0-20.9,0.1-31.4c0-1.2,0.2-2.4,0.2-3.5c2.6-0.6,3.1,1.2,3.6,2.7c0.6,1.9,0.9,3.9,1.5,6.5c1.3-2.3,2.3-4.1,3.2-5.6
			c2.7-1.6,4.5,1,7.1,1c-0.3-2.1-0.6-3.9-0.9-6.1c1.7-0.7,3.3-1.4,4.9-2c3.8-1.3,7.6-2.6,11.5-3.9c2.5-0.8,5.1-1.7,7.6-2.5
			c0.7,0.8,1.3,1.4,1.8,2c0.5,0.6,1,1.2,1.7,2c0.5-1.1,0.7-1.8,1.1-2.5c0.4-0.8,0.9-1.6,1.6-2.7c1.7,0.6,3.3,1.2,5,1.6
			c0.7,0.2,1.4,0,2.3,0c-0.3-1.6-0.5-2.9-0.7-4.5C183.1,224.2,185.2,222.9,187.3,221.5z"/>
		<path fill-rule="evenodd" clip-rule="evenodd" d="M187.3,221.5c-2.1,1.4-4.3,2.7-6.5,4.2c0.3,1.6,0.5,2.9,0.7,4.5
			c-0.8,0-1.6,0.2-2.3,0c-1.6-0.4-3.3-1-5-1.6c-0.7,1.1-1.2,1.9-1.6,2.7c-0.4,0.7-0.6,1.4-1.1,2.5c-0.7-0.9-1.2-1.4-1.7-2
			c-0.5-0.6-1.1-1.2-1.8-2c-2.5,0.8-5.1,1.6-7.6,2.5c-3.8,1.3-7.7,2.6-11.5,3.9c-1.6,0.6-3.2,1.3-4.9,2c0.3,2.1,0.6,3.9,0.9,6.1
			c-2.6,0-4.4-2.6-7.1-1c-0.9,1.5-1.9,3.3-3.2,5.6c-0.6-2.5-0.9-4.5-1.5-6.5c-0.5-1.5-1-3.2-3.6-2.7c-0.1,1.1-0.2,2.3-0.2,3.5
			c0,10.4,0,20.9-0.1,31.4c0,1.7-0.3,3.4-0.4,4.7c-1.7,1.7-3.3,1.9-5,1.6c-4.8-0.8-9.6-1.7-14.3-2.6c-9.5-1.8-19-3.7-28.5-5.5
			c-6.9-1.3-13.7-2.7-20.6-4.1c-3.3-0.7-4.2-1.9-4.2-5.3c0-5.3,0-10.6,0-15.7c-2.8-3.8-4.6-4.3-8.4-2.5c-1,0.4-1.9,0.9-3.3,1.6
			c-0.3-1.7-0.6-3-0.9-4.8c-0.6-0.5-1.4-1.2-2.4-1.7c-7.5-3.4-15-6.8-22.5-10.2c-1.2-0.5-2.3-0.6-3.5,0c-0.9,0.5-1.9,1-2.7,1.4
			c-2-1.2-1.6-3.2-2.5-5.2c-2-0.6-4.3-1.2-6.6-1.9c0.3-1.8,0.3-1.8,3.1-5.4c-0.1-0.9-0.3-2.1-0.5-3.2c-1.2-6.4-0.1-12,5-16.6
			c4.2-3.8,9.3-6.1,14.3-8.4c1.5-0.7,2.9-1.3,4.8-2.1c-0.3-2.3-0.5-4.4-0.8-7c3.3,0.9,4.4,4.5,8.1,4.9c1.4-1.2,3.1-2.7,5-4.4
			c0.5,1.9,0.8,3.4,1.2,5.1c4.5,0,8.5-0.9,12.4-2.7c0-15.9,0-31.8,0-48.3c-1.4,1.1-2.4,1.8-3.7,2.7c-1-1.3-2.1-2.6-3.1-3.9
			c-5.1,0.8-17.7,5.4-26.6,9.6c0.2,1.4,0.5,3,0.8,5c-2-0.6-3.6-1.1-5.1-1.6c-3.4,0.3-2.9,4.3-5.3,5.7c-1.4-1.4-2.6-2.8-3.8-4
			c-2.9,0.5-5.6,0.9-8.4,1.4c-0.1-2.7,2-2.8,3.2-3.9c1.3-1.2,2.6-2.3,4.2-3.6c-1.1-2.1-2.2-3.9-3.3-6c3-0.1,5.4,2.9,8.9,0.9
			c0.7-1,1.8-2.6,2.9-4.2c2.3,0.7,1.2,4.4,4.6,4.5c8.5-2.3,17.4-5.3,26.2-8.7c0.5-2.3,1-4.3,1.5-6.5c2.4,0.7,4,3.2,6.8,2.2
			c0.1-0.8,0.3-1.7,0.3-2.6c0-5.2,0.1-10.3,0-15.5c-0.1-2.5,0.6-4.5,3.4-6.2c1.6,0,3.7,0,5.9,0c6,0,11.9,0,17.9,0
			c1.6,0,3.3,0.1,4.5-1.5c-0.4-1.6-1.7-2.2-3.1-2.8c-2.2-1-4.4-2-6.7-2.9c-5.8-2.3-10.8-5.8-14.9-10.3c-4.1-4.3-6.1-9.7-7.1-15.6
			c-0.8-4.7-0.4-9.1,0.6-13.6c1.4-6,4.8-10.8,9-15.2C71,34.3,77.4,30.2,84,26.5c6.1-3.5,12.4-6.6,18.5-10.1c3-1.7,5.9-3.8,8.8-5.8
			C115,8,116.6,4.5,115.6,0c0.3,0,0.5,0,0.8,0c0.4,0.5,0.7,1.1,1.2,1.5c3.4,3.2,7,6,10.1,9.5c9.4,10.4,11.3,22.4,6.6,35.5
			c-2.4,6.7-6.9,11.9-12,16.6c-5.5,5.2-11.2,10.3-16.6,15.6c-3.3,3.3-5.7,7.2-6.8,11.8c-0.4,1.8-0.8,3.7-1,5.6
			c-0.3,3.3,2.3,5.6,6.4,5.7c6.2,0.1,12.5,0,18.7,0c1.5,0,3,0,3.9,0c2.7,1.8,3.4,3.8,3.4,6.3c-0.1,5.2,0,10.3,0,15.5
			c0,1,0.1,2.1,0.2,3.2c2.3,0.4,4.4,0.8,6.7,1.3c1.7-2.2,3.4-4.4,5.4-7c0.3,1,0.5,1.5,0.6,2c0.9,4.3,2.9,5.2,6.5,2.9
			c1-0.6,1.9-1.3,3.5-2.5c-0.7,3-1.3,5.2-1.8,7.5c2.9,1.4,5.7,2.7,8.5,4.1c2.9,1.5,5.8,3,8.5,4.8c2.6,1.7,4.9,3.7,7.2,5.3
			c2.1-0.3,2.8-2.7,4.9-2.3c0.5,2.3,1,4.5,1.5,6.9c1.8,0.9,3.6,1.7,5.5,2.6c0,0.3,0,0.5,0,0.8c-1.9,0.6-3.8,1.2-5.5,1.7
			c-0.4,1.9-0.7,3.3-1.1,4.7c-1.3,5.2-3.7,9.6-8.6,12.2c-2.7,1.5-5.5,2.9-8.4,3.9c-3.3,1.1-6.8,1.7-10.2,2.6
			c-0.8,0.2-1.5,0.9-2.4,1.4c1,2,1.8,3.8,2.9,6c-2.3-0.5-3.4-1.8-4.7-2.6c-3.4-2.3-5-2-7.5,1.2c-0.7,0.9-1.1,1.8-1.8,2.7
			c-0.4,0.6-0.9,1.1-1.6,1.9c-1.8-2.6-1.6-6.1-4.8-7.2c-3.3,1.3-3.4,1.3-3.4,4.5c0,14.8,0,29.5,0,44.3c0,0.7,0.1,1.3,0.1,1.9
			c3.9,2.5,5.7,1.6,8.7-4.1c2.1,3.2,2.1,3.2,5.3,4.6c7.3-2.2,15-3.8,21.9-8.5c-0.3-2.5-0.7-5-1-7.4c3,0.5,4.1,4.4,7.4,3.5
			c1.5-1.4,1-3.9,3.2-4.9c1.2,1.5,2.4,2.9,3.2,3.9c3.1,0.4,5.7,0.8,8.2,1.1C187.3,221,187.3,221.2,187.3,221.5z M70.1,188.8
			c0,23.1,0,46,0,68.7c0.9,1.5,2.1,2.2,3.7,2.4c5.8,1,11.6,2.1,17.5,3.2c6.2,1.2,12.4,2.4,18.6,3.7c1.9,0.4,3.7,0.5,5.7,0.2
			c1.4-2.2,1.6-4.6,1.6-7c0-23.2,0-46.4,0-69.6c0-2.1-0.3-4-1.2-6c-0.7-0.2-1.4-0.5-1.9-0.4c-5.8,1.4-11.9-0.1-17.7,2
			c-0.6,1.4-1.3,2.8-2,4.3c-2.8-0.9-5.3-2.1-8.1-1.2c-2.6,1.5-3.5,5.1-6.9,6.3c-0.4-2.5-0.1-5.1-2.3-7.2
			C75,188,72.7,187.5,70.1,188.8z M116.4,179c0.1-1,0.2-2,0.2-3.1c0-18.2,0-36.3,0-54.5c0-0.8,0-1.6-0.1-2.4c-0.3-2.8-1.6-4-4.5-4.3
			c-0.7-0.1-1.4,0-2,0c-11.4,0-22.8,0-34.2,0c-0.9,0-1.9,0-2.8,0.1c-1.6,0.3-2.6,1.4-3,3c-0.2,0.8-0.1,1.6-0.1,2.4
			c0,20.3,0,40.7,0,61c0,0.9,0.1,1.8,0.2,2.7c3.3,1.1,7.9,0.5,11.1-1.6c0.2-1.7,0.3-3.5,0.5-5.7c1.3,0.8,2.3,1.5,3.4,2
			c2.2,1.2,3.3,1.1,5.1-0.6c1-0.9,2-1.8,3.1-2.9c0.6,1.9,1.1,3.5,1.6,5.1C100.3,181.6,112,181,116.4,179z M119.9,15
			c-2,2.7-3.2,5.1-5.1,6.8c-3.9,3.7-8,7.3-12.3,10.6c-6.1,4.9-12.3,9.8-17.5,15.7c-6.2,7-10.3,14.8-9.5,24.6
			c0.6,7.1,3.5,13,8.4,17.9c2.3,2.3,4.9,4.3,8.4,4.4c1.8-0.9,1.4-2.5,1.3-3.9c-0.6-5.9,1-11.3,3.5-16.4c2.3-4.7,5-9.3,7.8-13.8
			c4.1-6.7,8.5-13.2,12.4-20c1.8-3,3-6.3,4.3-9.6c1.5-3.8,1.2-7.7,0.3-11.5C121.6,18.3,120.8,16.9,119.9,15z M46.8,229.6
			c0.7,1,1,1.6,1.4,2.1c0.6,0.9,1.1,1.9,1.8,2.7c1.1,1.2,2.4,1.7,4,1.2c1.7-0.5,2.3-1.7,2.3-3.4c0-0.7,0.1-1.4,0.1-2
			c0-12.3,0-24.7,0-37c0-1-0.2-2.1-0.3-3.2c-3.9-0.5-7.3-0.3-10.6,1.8c0.6,1.5,1.1,2.7,1.9,4.4c-2.7-0.6-4.9-1.1-7-1.7
			c-1.1,0.6-2.1,1.2-3,1.7c-0.7-1.2-1.3-2.3-1.7-3.1c-0.6-0.1-0.9-0.2-1.1-0.2c-6,1.7-11.8,3.9-16.7,7.8c-3.2,2.6-5.2,5.8-6.1,9.8
			c-0.5,2.2-0.3,4.2,1.3,6.3c1.3-0.6,2.6-1.1,3.9-1.7c0.1,1.8,0.3,3.2,0.4,4.5c1.6,0.5,3,1,4.6,1.5c-0.2,1.4-0.5,2.7-0.7,3.9
			c4.3,3.7,20.3,10.5,25,10.5C46.4,233.7,46.5,231.9,46.8,229.6z M130.5,132.9c0,14.7,0,29.2,0,43.5c2.2,2,3.8,0.9,5.5-0.4
			c0.2-1.7,0.3-3.3,0.5-5c2.8,0.5,5.1,2.7,8.1,1.3c0.9-1.2,1.8-2.4,2.9-3.8c0.8,1.8,1.5,3.3,2.1,4.7c3.2,0.7,6,0.3,9-0.4
			c4.8-1.2,9.2-3.2,13.1-6.2c2.4-1.8,4.3-4.1,3.4-7.4c-2.4-1.7-4.8,1.4-7.1-0.3c1.1-1.7,2.1-3.2,3.1-4.7c-1.2-1.4-2.2-2.4-3.1-3.4
			c0.7-1.1,1.3-2,1.8-2.8c-2.2-3.9-4.6-5.9-10.9-8.8c-2.1-1-4.3-2.4-6.9-1.4c-0.7,1.8-1.3,3.6-2.1,5.8c-2.6-2.1-3.6-5.8-7.7-5.7
			c-1.3,0.6-3,1.3-4.7,2.1c-0.5-2-0.5-4-1.5-5.4C134.8,133.1,132.8,132.3,130.5,132.9z"/>
		<path fill-rule="evenodd" clip-rule="evenodd" fill="none" d="M187.3,152.3c-1.8-0.9-3.6-1.7-5.5-2.6c-0.5-2.4-1-4.6-1.5-6.9
			c-2.1-0.4-2.8,2-4.9,2.3c-2.2-1.7-4.6-3.7-7.2-5.3c-2.7-1.8-5.6-3.3-8.5-4.8c-2.7-1.4-5.5-2.7-8.5-4.1c0.6-2.3,1.1-4.5,1.8-7.5
			c-1.7,1.2-2.6,1.9-3.5,2.5c-3.6,2.3-5.6,1.5-6.5-2.9c-0.1-0.5-0.3-0.9-0.6-2c-2,2.6-3.6,4.8-5.4,7c-2.3-0.4-4.4-0.8-6.7-1.3
			c-0.1-1.1-0.2-2.2-0.2-3.2c0-5.2,0-10.3,0-15.5c0-2.5-0.6-4.5-3.4-6.3c-0.9,0-2.4,0-3.9,0c-6.2,0-12.5,0.1-18.7,0
			c-4.1,0-6.7-2.4-6.4-5.7c0.2-1.9,0.6-3.7,1-5.6c1.1-4.6,3.5-8.5,6.8-11.8c5.4-5.3,11.1-10.4,16.6-15.6c5.1-4.8,9.6-10,12-16.6
			c4.7-13.1,2.8-25.1-6.6-35.5c-3.1-3.4-6.7-6.3-10.1-9.5c-0.5-0.4-0.8-1-1.2-1.5c23.6,0,47.2,0,70.8,0
			C187.3,50.8,187.3,101.5,187.3,152.3z"/>
		<path fill-rule="evenodd" clip-rule="evenodd" fill="none" d="M187.3,220.7c-2.5-0.3-5.1-0.7-8.2-1.1c-0.8-1-2-2.4-3.2-3.9
			c-2.2,1-1.7,3.5-3.2,4.9c-3.3,0.9-4.4-3-7.4-3.5c0.3,2.4,0.7,4.8,1,7.4c-6.9,4.7-14.6,6.3-21.9,8.5c-3.2-1.3-3.2-1.3-5.3-4.6
			c-3.1,5.6-4.8,6.5-8.7,4.1c0-0.5-0.1-1.2-0.1-1.9c0-14.8,0-29.5,0-44.3c0-3.2,0.1-3.2,3.4-4.5c3.2,1.1,3,4.5,4.8,7.2
			c0.6-0.8,1.1-1.3,1.6-1.9c0.6-0.9,1.1-1.9,1.8-2.7c2.5-3.3,4.1-3.5,7.5-1.2c1.3,0.9,2.4,2.1,4.7,2.6c-1.1-2.2-1.9-4-2.9-6
			c0.9-0.5,1.6-1.2,2.4-1.4c3.4-0.9,6.9-1.5,10.2-2.6c2.9-1,5.7-2.4,8.4-3.9c4.8-2.6,7.3-7.1,8.6-12.2c0.4-1.4,0.7-2.9,1.1-4.7
			c1.8-0.6,3.7-1.1,5.5-1.7C187.3,175.6,187.3,198.2,187.3,220.7z"/>
		<path fill-rule="evenodd" clip-rule="evenodd" fill="none" d="M70.1,188.8c2.6-1.3,4.8-0.8,6.9-0.7c2.1,2.1,1.8,4.7,2.3,7.2
			c3.4-1.2,4.3-4.8,6.9-6.3c2.8-0.9,5.3,0.4,8.1,1.2c0.7-1.5,1.3-2.9,2-4.3c5.8-2.1,12-0.6,17.7-2c0.6-0.1,1.3,0.3,1.9,0.4
			c0.9,2,1.2,3.9,1.2,6c0,23.2,0,46.4,0,69.6c0,2.4-0.2,4.8-1.6,7c-1.9,0.3-3.8,0.2-5.7-0.2c-6.2-1.3-12.4-2.5-18.6-3.7
			c-5.8-1.1-11.6-2.2-17.5-3.2c-1.6-0.3-2.8-0.9-3.7-2.4C70.1,234.8,70.1,211.9,70.1,188.8z"/>
		<path fill-rule="evenodd" clip-rule="evenodd" fill="none" d="M116.4,179c-4.4,2-16.1,2.6-21.4,1.1c-0.5-1.5-1-3.1-1.6-5.1
			c-1.2,1.1-2.1,2-3.1,2.9c-1.8,1.6-2.9,1.8-5.1,0.6c-1-0.6-2-1.2-3.4-2c-0.2,2.2-0.4,4-0.5,5.7c-3.2,2-7.8,2.7-11.1,1.6
			c-0.1-0.8-0.2-1.8-0.2-2.7c0-20.3,0-40.7,0-61c0-0.8-0.1-1.6,0.1-2.4c0.3-1.6,1.3-2.7,3-3c0.9-0.2,1.9-0.1,2.8-0.1
			c11.4,0,22.8,0,34.2,0c0.7,0,1.4,0,2,0c2.8,0.3,4.1,1.5,4.5,4.3c0.1,0.8,0.1,1.6,0.1,2.4c0,18.2,0,36.3,0,54.5
			C116.6,177,116.5,178.1,116.4,179z"/>
		<path fill-rule="evenodd" clip-rule="evenodd" fill="none" d="M119.9,15c0.8,1.9,1.7,3.3,2.1,4.8c0.9,3.8,1.2,7.8-0.3,11.5
			c-1.3,3.3-2.5,6.6-4.3,9.6c-4,6.8-8.4,13.3-12.4,20c-2.7,4.5-5.4,9-7.8,13.8c-2.5,5.1-4.1,10.6-3.5,16.4c0.1,1.4,0.5,3.1-1.3,3.9
			c-3.5-0.2-6.2-2.2-8.4-4.4c-4.9-4.9-7.8-10.8-8.4-17.9c-0.8-9.8,3.3-17.6,9.5-24.6c5.3-5.9,11.4-10.8,17.5-15.7
			c4.2-3.4,8.3-6.9,12.3-10.6C116.7,20.1,117.9,17.7,119.9,15z"/>
		<path fill-rule="evenodd" clip-rule="evenodd" fill="none" d="M46.8,229.6c-0.2,2.3-0.4,4.1-0.5,5.9c-4.7,0-20.7-6.8-25-10.5
			c0.2-1.2,0.4-2.4,0.7-3.9c-1.6-0.5-3-0.9-4.6-1.5c-0.1-1.3-0.2-2.7-0.4-4.5c-1.4,0.6-2.6,1.1-3.9,1.7c-1.6-2-1.8-4.1-1.3-6.3
			c0.9-4,2.9-7.2,6.1-9.8c4.9-4,10.7-6.2,16.7-7.8c0.2-0.1,0.5,0.1,1.1,0.2c0.5,0.8,1,1.9,1.7,3.1c1-0.6,2-1.1,3-1.7
			c2.2,0.5,4.3,1,7,1.7c-0.8-1.8-1.3-3-1.9-4.4c3.3-2.1,6.7-2.3,10.6-1.8c0.1,1.2,0.3,2.2,0.3,3.2c0,12.3,0,24.7,0,37
			c0,0.7-0.1,1.4-0.1,2c0,1.7-0.7,2.9-2.3,3.4c-1.6,0.5-3,0-4-1.2c-0.7-0.8-1.2-1.8-1.8-2.7C47.8,231.2,47.4,230.6,46.8,229.6z"/>
		<path fill-rule="evenodd" clip-rule="evenodd" fill="none" d="M130.5,132.9c2.4-0.6,4.3,0.1,5.3,1.6c1,1.4,1,3.5,1.5,5.4
			c1.8-0.8,3.5-1.5,4.7-2.1c4.1-0.1,5.1,3.5,7.7,5.7c0.8-2.2,1.4-3.9,2.1-5.8c2.6-1,4.7,0.4,6.9,1.4c6.3,2.9,8.8,4.9,10.9,8.8
			c-0.5,0.8-1.1,1.7-1.8,2.8c0.9,1,1.9,2.1,3.1,3.4c-1,1.5-2,3.1-3.1,4.7c2.3,1.7,4.7-1.4,7.1,0.3c0.9,3.2-1,5.5-3.4,7.4
			c-3.9,3-8.3,5-13.1,6.2c-2.9,0.7-5.8,1.1-9,0.4c-0.6-1.4-1.3-2.9-2.1-4.7c-1.1,1.4-2,2.7-2.9,3.8c-2.9,1.4-5.3-0.8-8.1-1.3
			c-0.2,1.7-0.3,3.3-0.5,5c-1.7,1.3-3.3,2.4-5.5,0.4C130.5,162.1,130.5,147.7,130.5,132.9z"/>
	</g>
</g>
</svg>
