<?xml version="1.0" encoding="utf-8"?>
<!-- Generator: Adobe Illustrator 18.1.1, SVG Export Plug-In . SVG Version: 6.00 Build 0)  -->
<svg version="1.1" id="Layer_1" xmlns="http://www.w3.org/2000/svg" xmlns:xlink="http://www.w3.org/1999/xlink" x="0px" y="0px"
	 viewBox="0 0 1933.7 281" enable-background="new 0 0 1933.7 281" xml:space="preserve">
<g>
	<path fill="#FFFB00" d="M97.7,71.2c-0.5-5.8-1.6-10.7-3.2-14.6c-1.6-3.9-3.7-7-6.1-9.3c-2.4-2.3-5-3.9-7.8-4.9
		c-2.8-1-5.4-1.5-8-1.5c-7.6,0-13.4,2.3-17.4,7c-4,4.7-6.1,11.3-6.1,19.9c0,7.8,2.3,15,7,21.6c4.7,6.6,10.5,13.1,17.6,19.7
		c7.1,6.6,14.8,13.2,23.1,19.9c8.3,6.7,16,14.1,23.1,22.2c7.1,8.1,12.9,17,17.6,26.7c4.7,9.7,7,20.8,7,33.1
		c0,11.4-1.8,21.4-5.5,30.1c-3.7,8.7-8.7,16-15.1,22c-6.4,5.9-14.3,10.4-23.5,13.4c-9.2,3-19.3,4.5-30.1,4.5
		c-10.9,0-20.6-2-29.2-6.1c-8.6-4-15.8-9.5-21.8-16.5c-5.9-6.9-10.5-15-13.8-24c-3.3-9.1-5.2-18.8-5.7-29.2l44.7-6.4
		c1,13.9,4,24.2,9.1,31c5,6.8,11.4,10.2,18.9,10.2c8.1,0,14.6-2.1,19.7-6.4c5-4.3,7.6-10.5,7.6-18.6c0-9.1-2.3-17.2-7-24.2
		c-4.7-7.1-10.5-13.9-17.6-20.4c-7.1-6.6-14.8-13.1-23.1-19.7c-8.3-6.6-16-13.8-23.1-21.6c-7.1-7.8-12.9-16.7-17.6-26.5
		c-4.7-9.8-7-21.3-7-34.5c0-22,6.3-38.8,18.9-50.5C36.1,5.9,54,0,77.2,0c9.6,0,18.2,1.6,25.7,4.9c7.6,3.3,14.1,7.9,19.5,13.8
		c5.4,5.9,9.8,12.9,13.3,21c3.4,8.1,5.6,16.9,6.6,26.5L97.7,71.2z"/>
	<path fill="#FFFB00" d="M202.2,44.7h-45.4V3.8h137.8v40.9h-45.4v232.5h-47V44.7z"/>
	<path fill="#FFFB00" d="M315.4,70c0-9.6,1.4-18.7,4.4-27.3c2.9-8.6,7.3-16,13.3-22.3c5.9-6.3,13.4-11.3,22.3-15
		c9-3.7,19.6-5.5,32-5.5c12.4,0,23,1.8,32,5.5c9,3.7,16.4,8.6,22.3,15c5.9,6.3,10.3,13.8,13.3,22.3c2.9,8.6,4.4,17.7,4.4,27.3v140.9
		c0,9.6-1.5,18.7-4.4,27.3c-2.9,8.6-7.3,16-13.3,22.3c-5.9,6.3-13.4,11.3-22.3,15c-9,3.7-19.6,5.5-32,5.5c-12.4,0-23-1.8-32-5.5
		c-9-3.7-16.4-8.6-22.3-15c-5.9-6.3-10.4-13.8-13.3-22.3c-2.9-8.6-4.4-17.7-4.4-27.3V70z M362.4,209.8c0,10.4,1.8,18,5.3,22.9
		c3.5,4.9,10.1,7.4,19.7,7.4c9.6,0,16.2-2.5,19.7-7.4c3.5-4.9,5.3-12.6,5.3-22.9V71.2c0-10.3-1.8-18-5.3-22.9
		c-3.5-4.9-10.1-7.4-19.7-7.4c-9.6,0-16.2,2.5-19.7,7.4c-3.5,4.9-5.3,12.6-5.3,22.9V209.8z"/>
	<path fill="#FFFB00" d="M494.9,277.2V3.8h67.4c29,0,50.4,6.2,64.2,18.6c13.8,12.4,20.6,33.1,20.6,62.1c0,14.6-1.7,27.1-5.1,37.3
		c-3.4,10.2-8.6,18.6-15.5,25c-6.9,6.4-15.8,11.1-26.5,14c-10.7,2.9-23.3,4.4-37.7,4.4h-20.4v112.1H494.9z M541.8,126.5H560
		c7.6,0,13.9-0.6,19.1-1.9c5.2-1.3,9.3-3.5,12.5-6.8c3.2-3.3,5.4-7.6,6.6-13.1c1.3-5.4,1.9-12.2,1.9-20.3c0-8.1-0.6-14.8-1.9-20.3
		c-1.3-5.4-3.5-9.7-6.6-12.9c-3.2-3.2-7.3-5.4-12.5-6.8c-5.2-1.4-11.5-2.1-19.1-2.1h-18.2V126.5z"/>
</g>
<g>
	<path fill="#FFFFFF" d="M772.8,44.7h-45.4V3.8h137.8v40.9h-45.4v232.5h-47V44.7z"/>
	<path fill="#FFFFFF" d="M890.6,70c0-9.6,1.4-18.7,4.4-27.3c2.9-8.6,7.3-16,13.3-22.3c5.9-6.3,13.4-11.3,22.3-15
		c9-3.7,19.6-5.5,32-5.5c12.4,0,23,1.8,32,5.5c9,3.7,16.4,8.6,22.3,15c5.9,6.3,10.3,13.8,13.3,22.3c2.9,8.6,4.4,17.7,4.4,27.3v140.9
		c0,9.6-1.5,18.7-4.4,27.3c-2.9,8.6-7.3,16-13.3,22.3c-5.9,6.3-13.4,11.3-22.3,15c-9,3.7-19.6,5.5-32,5.5c-12.4,0-23-1.8-32-5.5
		c-9-3.7-16.4-8.6-22.3-15c-5.9-6.3-10.4-13.8-13.3-22.3c-2.9-8.6-4.4-17.7-4.4-27.3V70z M937.6,209.8c0,10.4,1.8,18,5.3,22.9
		c3.5,4.9,10.1,7.4,19.7,7.4c9.6,0,16.2-2.5,19.7-7.4c3.5-4.9,5.3-12.6,5.3-22.9V71.2c0-10.3-1.8-18-5.3-22.9
		c-3.5-4.9-10.1-7.4-19.7-7.4c-9.6,0-16.2,2.5-19.7,7.4c-3.5,4.9-5.3,12.6-5.3,22.9V209.8z"/>
	<path fill="#FFFFFF" d="M1120.1,277.2h-47V3.8h65.9c26.3,0,46.1,6.2,59.4,18.6c13.4,12.4,20.1,33.1,20.1,62.1
		c0,11.1-0.9,20.6-2.8,28.4c-1.9,7.8-4.4,14.5-7.6,19.9c-3.2,5.4-6.7,9.8-10.6,13.1c-3.9,3.3-7.9,5.8-11.9,7.6l39.8,123.8h-47.7
		L1144.3,164c-3,0.5-6.8,0.8-11.2,0.9c-4.4,0.1-8.8,0.2-13.1,0.2V277.2z M1120.1,126.5h16.7c6.3,0,11.7-0.6,16.1-1.9
		c4.4-1.3,8-3.5,10.8-6.8c2.8-3.3,4.8-7.6,6.1-13.1c1.3-5.4,1.9-12.2,1.9-20.3c0-16.2-2.7-27.2-8-33.1c-5.3-5.9-14.3-8.9-26.9-8.9
		h-16.7V126.5z"/>
	<path fill="#FFFFFF" d="M1281.7,44.7h-45.4V3.8h137.8v40.9h-45.4v232.5h-47V44.7z"/>
	<path fill="#FFFFFF" d="M1400.3,3.8h47v206.4c0,19.9,8.3,29.9,25,29.9c16.7,0,25-10,25-29.9V3.8h47v204.5
		c0,23.7-6.4,41.8-19.1,54.1c-12.7,12.4-30.4,18.6-52.8,18.6c-22.5,0-40.1-6.2-52.8-18.6c-12.8-12.4-19.1-30.4-19.1-54.1V3.8z"/>
	<path fill="#FFFFFF" d="M1629.3,277.2h-47V3.8h65.9c26.3,0,46.1,6.2,59.4,18.6c13.4,12.4,20.1,33.1,20.1,62.1
		c0,11.1-0.9,20.6-2.8,28.4c-1.9,7.8-4.4,14.5-7.6,19.9c-3.2,5.4-6.7,9.8-10.6,13.1c-3.9,3.3-7.9,5.8-11.9,7.6l39.8,123.8h-47.7
		L1653.6,164c-3,0.5-6.8,0.8-11.2,0.9c-4.4,0.1-8.8,0.2-13.1,0.2V277.2z M1629.3,126.5h16.7c6.3,0,11.7-0.6,16.1-1.9
		c4.4-1.3,8-3.5,10.8-6.8c2.8-3.3,4.8-7.6,6.1-13.1c1.3-5.4,1.9-12.2,1.9-20.3c0-16.2-2.7-27.2-8-33.1c-5.3-5.9-14.3-8.9-26.9-8.9
		h-16.7V126.5z"/>
	<path fill="#FFFFFF" d="M1765.6,277.2V3.8h125.7v40.9h-78.8v70.4h60.6V156h-60.6v80.3h84.1v40.9H1765.6z"/>
</g>
<rect x="699.6" y="121.3" transform="matrix(0.9864 -0.1642 0.1642 0.9864 -5.3025 218.5486)" fill="#FFFB00" width="1239.2" height="40"/>
</svg>
